<?xml version="1.0" encoding="UTF-8" standalone="no"?>
<!DOCTYPE svg PUBLIC "-//W3C//DTD SVG 1.1//EN"
 "http://www.w3.org/Graphics/SVG/1.1/DTD/svg11.dtd">
<!-- Generated by graphviz version 2.26.3 (20100126.1600)
 -->
<!-- Title: graphname Pages: 1 -->
<svg width="635pt" height="674pt"
 viewBox="0.00 0.00 634.52 673.97" xmlns="http://www.w3.org/2000/svg" xmlns:xlink="http://www.w3.org/1999/xlink">
<g id="graph1" class="graph" transform="scale(1 1) rotate(0) translate(4 669.967)">
<title>graphname</title>
<polygon fill="white" stroke="white" points="-4,5 -4,-669.967 631.519,-669.967 631.519,5 -4,5"/>
<!-- 4 -->
<g id="node1" class="node"><title>4</title>
<ellipse fill="none" stroke="black" cx="34.4043" cy="-20" rx="27" ry="19.0919"/>
<text text-anchor="middle" x="34.4043" y="-16.9" font-family="Times Roman,serif" font-size="14.00">4</text>
</g>
<!-- 12 -->
<g id="node3" class="node"><title>12</title>
<ellipse fill="none" stroke="black" cx="104.009" cy="-40.7093" rx="27" ry="19.0919"/>
<text text-anchor="middle" x="104.009" y="-37.6093" font-family="Times Roman,serif" font-size="14.00">12</text>
</g>
<!-- 4&#45;&#45;12 -->
<g id="edge2" class="edge"><title>4&#45;&#45;12</title>
<path fill="none" stroke="black" d="M59.533,-27.4765C65.7634,-29.3303 72.4432,-31.3177 78.6829,-33.1742"/>
</g>
<!-- 13 -->
<g id="node5" class="node"><title>13</title>
<ellipse fill="none" stroke="black" cx="28" cy="-91.7473" rx="27" ry="19.0919"/>
<text text-anchor="middle" x="28" y="-88.6473" font-family="Times Roman,serif" font-size="14.00">13</text>
</g>
<!-- 4&#45;&#45;13 -->
<g id="edge4" class="edge"><title>4&#45;&#45;13</title>
<path fill="none" stroke="black" d="M32.6881,-39.2269C31.7692,-49.5211 30.6406,-62.165 29.721,-72.4672"/>
</g>
<!-- 12&#45;&#45;13 -->
<g id="edge8" class="edge"><title>12&#45;&#45;13</title>
<path fill="none" stroke="black" d="M84.4345,-53.8528C73.1741,-61.4139 59.0655,-70.8875 47.7719,-78.4709"/>
</g>
<!-- 22 -->
<g id="node7" class="node"><title>22</title>
<ellipse fill="none" stroke="black" cx="92.3333" cy="-104.963" rx="27" ry="19.0919"/>
<text text-anchor="middle" x="92.3333" y="-101.863" font-family="Times Roman,serif" font-size="14.00">22</text>
</g>
<!-- 12&#45;&#45;22 -->
<g id="edge6" class="edge"><title>12&#45;&#45;22</title>
<path fill="none" stroke="black" d="M100.569,-59.64C99.062,-67.932 97.2974,-77.6437 95.7889,-85.9456"/>
</g>
<!-- 21 -->
<g id="node10" class="node"><title>21</title>
<ellipse fill="none" stroke="black" cx="175.38" cy="-72.0084" rx="27" ry="19.0919"/>
<text text-anchor="middle" x="175.38" y="-68.9084" font-family="Times Roman,serif" font-size="14.00">21</text>
</g>
<!-- 12&#45;&#45;21 -->
<g id="edge10" class="edge"><title>12&#45;&#45;21</title>
<path fill="none" stroke="black" d="M126.984,-50.7848C135.134,-54.3589 144.302,-58.3792 152.448,-61.9517"/>
</g>
<!-- 13&#45;&#45;22 -->
<g id="edge12" class="edge"><title>13&#45;&#45;22</title>
<path fill="none" stroke="black" d="M54.1668,-97.1226C58.2021,-97.9516 62.368,-98.8074 66.3982,-99.6353"/>
</g>
<!-- 23 -->
<g id="node13" class="node"><title>23</title>
<ellipse fill="none" stroke="black" cx="29.9582" cy="-169.146" rx="27" ry="19.0919"/>
<text text-anchor="middle" x="29.9582" y="-166.046" font-family="Times Roman,serif" font-size="14.00">23</text>
</g>
<!-- 13&#45;&#45;23 -->
<g id="edge14" class="edge"><title>13&#45;&#45;23</title>
<path fill="none" stroke="black" d="M28.4841,-110.879C28.7853,-122.787 29.1715,-138.049 29.473,-149.965"/>
</g>
<!-- 22&#45;&#45;23 -->
<g id="edge22" class="edge"><title>22&#45;&#45;23</title>
<path fill="none" stroke="black" d="M76.9147,-120.828C67.3906,-130.628 55.2039,-143.168 45.6327,-153.017"/>
</g>
<!-- 21&#45;&#45;22 -->
<g id="edge16" class="edge"><title>21&#45;&#45;22</title>
<path fill="none" stroke="black" d="M151.805,-81.3637C140.583,-85.8165 127.197,-91.1285 115.968,-95.5843"/>
</g>
<!-- 29 -->
<g id="node16" class="node"><title>29</title>
<ellipse fill="none" stroke="black" cx="255.701" cy="-106.164" rx="27" ry="19.0919"/>
<text text-anchor="middle" x="255.701" y="-103.064" font-family="Times Roman,serif" font-size="14.00">29</text>
</g>
<!-- 21&#45;&#45;29 -->
<g id="edge18" class="edge"><title>21&#45;&#45;29</title>
<path fill="none" stroke="black" d="M198.613,-81.8876C209.269,-86.419 221.871,-91.7781 232.521,-96.3069"/>
</g>
<!-- 30 -->
<g id="node18" class="node"><title>30</title>
<ellipse fill="none" stroke="black" cx="191.216" cy="-134.129" rx="27" ry="19.0919"/>
<text text-anchor="middle" x="191.216" y="-131.029" font-family="Times Roman,serif" font-size="14.00">30</text>
</g>
<!-- 21&#45;&#45;30 -->
<g id="edge20" class="edge"><title>21&#45;&#45;30</title>
<path fill="none" stroke="black" d="M180.218,-90.9841C182.182,-98.6911 184.447,-107.574 186.408,-115.269"/>
</g>
<!-- 31 -->
<g id="node21" class="node"><title>31</title>
<ellipse fill="none" stroke="black" cx="82.0165" cy="-207.003" rx="27" ry="19.0919"/>
<text text-anchor="middle" x="82.0165" y="-203.903" font-family="Times Roman,serif" font-size="14.00">31</text>
</g>
<!-- 23&#45;&#45;31 -->
<g id="edge24" class="edge"><title>23&#45;&#45;31</title>
<path fill="none" stroke="black" d="M48.7525,-182.813C53.4123,-186.202 58.4082,-189.835 63.075,-193.229"/>
</g>
<!-- 32 -->
<g id="node23" class="node"><title>32</title>
<ellipse fill="none" stroke="black" cx="30.8559" cy="-255.761" rx="27" ry="19.0919"/>
<text text-anchor="middle" x="30.8559" y="-252.661" font-family="Times Roman,serif" font-size="14.00">32</text>
</g>
<!-- 23&#45;&#45;32 -->
<g id="edge26" class="edge"><title>23&#45;&#45;32</title>
<path fill="none" stroke="black" d="M30.1575,-188.368C30.3062,-202.722 30.5086,-222.251 30.6573,-236.592"/>
</g>
<!-- 29&#45;&#45;30 -->
<g id="edge32" class="edge"><title>29&#45;&#45;30</title>
<path fill="none" stroke="black" d="M232.421,-116.26C226.504,-118.826 220.15,-121.581 214.246,-124.141"/>
</g>
<!-- 38 -->
<g id="node25" class="node"><title>38</title>
<ellipse fill="none" stroke="black" cx="315.58" cy="-163.067" rx="27" ry="19.0919"/>
<text text-anchor="middle" x="315.58" y="-159.967" font-family="Times Roman,serif" font-size="14.00">38</text>
</g>
<!-- 29&#45;&#45;38 -->
<g id="edge28" class="edge"><title>29&#45;&#45;38</title>
<path fill="none" stroke="black" d="M272.063,-121.713C280.512,-129.742 290.791,-139.51 299.237,-147.536"/>
</g>
<!-- 39 -->
<g id="node27" class="node"><title>39</title>
<ellipse fill="none" stroke="black" cx="239.586" cy="-175.105" rx="27" ry="19.0919"/>
<text text-anchor="middle" x="239.586" y="-172.005" font-family="Times Roman,serif" font-size="14.00">39</text>
</g>
<!-- 29&#45;&#45;39 -->
<g id="edge30" class="edge"><title>29&#45;&#45;39</title>
<path fill="none" stroke="black" d="M251.298,-125.002C249.024,-134.73 246.257,-146.565 243.984,-156.289"/>
</g>
<!-- 30&#45;&#45;39 -->
<g id="edge34" class="edge"><title>30&#45;&#45;39</title>
<path fill="none" stroke="black" d="M208.679,-148.922C213.117,-152.682 217.883,-156.719 222.311,-160.471"/>
</g>
<!-- 40 -->
<g id="node31" class="node"><title>40</title>
<ellipse fill="none" stroke="black" cx="160.536" cy="-206.499" rx="27" ry="19.0919"/>
<text text-anchor="middle" x="160.536" y="-203.399" font-family="Times Roman,serif" font-size="14.00">40</text>
</g>
<!-- 30&#45;&#45;40 -->
<g id="edge36" class="edge"><title>30&#45;&#45;40</title>
<path fill="none" stroke="black" d="M183.474,-152.391C178.823,-163.362 172.926,-177.273 168.276,-188.243"/>
</g>
<!-- 31&#45;&#45;32 -->
<g id="edge42" class="edge"><title>31&#45;&#45;32</title>
<path fill="none" stroke="black" d="M65.829,-222.43C59.8571,-228.122 53.0919,-234.569 47.1138,-240.267"/>
</g>
<!-- 31&#45;&#45;40 -->
<g id="edge38" class="edge"><title>31&#45;&#45;40</title>
<path fill="none" stroke="black" d="M109.039,-206.83C116.935,-206.779 125.565,-206.724 133.464,-206.673"/>
</g>
<!-- 41 -->
<g id="node34" class="node"><title>41</title>
<ellipse fill="none" stroke="black" cx="101.088" cy="-267.39" rx="27" ry="19.0919"/>
<text text-anchor="middle" x="101.088" y="-264.29" font-family="Times Roman,serif" font-size="14.00">41</text>
</g>
<!-- 31&#45;&#45;41 -->
<g id="edge40" class="edge"><title>31&#45;&#45;41</title>
<path fill="none" stroke="black" d="M87.9463,-225.779C90.2645,-233.119 92.916,-241.515 95.2274,-248.833"/>
</g>
<!-- 32&#45;&#45;41 -->
<g id="edge44" class="edge"><title>32&#45;&#45;41</title>
<path fill="none" stroke="black" d="M57.4077,-260.157C63.0013,-261.083 68.9037,-262.061 74.4987,-262.987"/>
</g>
<!-- 42 -->
<g id="node38" class="node"><title>42</title>
<ellipse fill="none" stroke="black" cx="59.8522" cy="-332.597" rx="27" ry="19.0919"/>
<text text-anchor="middle" x="59.8522" y="-329.497" font-family="Times Roman,serif" font-size="14.00">42</text>
</g>
<!-- 32&#45;&#45;42 -->
<g id="edge46" class="edge"><title>32&#45;&#45;42</title>
<path fill="none" stroke="black" d="M37.8751,-274.36C42.4341,-286.441 48.3516,-302.122 52.8976,-314.168"/>
</g>
<!-- 38&#45;&#45;39 -->
<g id="edge52" class="edge"><title>38&#45;&#45;39</title>
<path fill="none" stroke="black" d="M289.001,-167.277C281.553,-168.457 273.461,-169.739 266.022,-170.917"/>
</g>
<!-- 46 -->
<g id="node40" class="node"><title>46</title>
<ellipse fill="none" stroke="black" cx="396.73" cy="-177.152" rx="27" ry="19.0919"/>
<text text-anchor="middle" x="396.73" y="-174.052" font-family="Times Roman,serif" font-size="14.00">46</text>
</g>
<!-- 38&#45;&#45;46 -->
<g id="edge48" class="edge"><title>38&#45;&#45;46</title>
<path fill="none" stroke="black" d="M342.151,-167.679C351.211,-169.251 361.333,-171.008 370.376,-172.578"/>
</g>
<!-- 47 -->
<g id="node42" class="node"><title>47</title>
<ellipse fill="none" stroke="black" cx="351.178" cy="-231.568" rx="27" ry="19.0919"/>
<text text-anchor="middle" x="351.178" y="-228.468" font-family="Times Roman,serif" font-size="14.00">47</text>
</g>
<!-- 38&#45;&#45;47 -->
<g id="edge50" class="edge"><title>38&#45;&#45;47</title>
<path fill="none" stroke="black" d="M324.933,-181.065C330.124,-191.054 336.563,-203.444 341.764,-213.452"/>
</g>
<!-- 39&#45;&#45;40 -->
<g id="edge54" class="edge"><title>39&#45;&#45;40</title>
<path fill="none" stroke="black" d="M215.869,-184.524C205.863,-188.498 194.24,-193.114 184.237,-197.086"/>
</g>
<!-- 40&#45;&#45;41 -->
<g id="edge56" class="edge"><title>40&#45;&#45;41</title>
<path fill="none" stroke="black" d="M145.227,-222.18C136.42,-231.201 125.385,-242.503 116.552,-251.551"/>
</g>
<!-- 41&#45;&#45;42 -->
<g id="edge58" class="edge"><title>41&#45;&#45;42</title>
<path fill="none" stroke="black" d="M90.0376,-284.864C84.1212,-294.22 76.8542,-305.711 70.9331,-315.074"/>
</g>
<!-- 50 -->
<g id="node48" class="node"><title>50</title>
<ellipse fill="none" stroke="black" cx="108.526" cy="-392.446" rx="27" ry="19.0919"/>
<text text-anchor="middle" x="108.526" y="-389.346" font-family="Times Roman,serif" font-size="14.00">50</text>
</g>
<!-- 42&#45;&#45;50 -->
<g id="edge60" class="edge"><title>42&#45;&#45;50</title>
<path fill="none" stroke="black" d="M73.4105,-349.268C80.1615,-357.569 88.2992,-367.575 95.0402,-375.864"/>
</g>
<!-- 51 -->
<g id="node50" class="node"><title>51</title>
<ellipse fill="none" stroke="black" cx="40.1733" cy="-412.328" rx="27" ry="19.0919"/>
<text text-anchor="middle" x="40.1733" y="-409.228" font-family="Times Roman,serif" font-size="14.00">51</text>
</g>
<!-- 42&#45;&#45;51 -->
<g id="edge62" class="edge"><title>42&#45;&#45;51</title>
<path fill="none" stroke="black" d="M55.1886,-351.492C52.0516,-364.202 47.9334,-380.887 44.8034,-393.568"/>
</g>
<!-- 46&#45;&#45;47 -->
<g id="edge68" class="edge"><title>46&#45;&#45;47</title>
<path fill="none" stroke="black" d="M382.816,-193.774C377.164,-200.526 370.65,-208.307 365.007,-215.048"/>
</g>
<!-- 55 -->
<g id="node52" class="node"><title>55</title>
<ellipse fill="none" stroke="black" cx="472.092" cy="-220.577" rx="27" ry="19.0919"/>
<text text-anchor="middle" x="472.092" y="-217.477" font-family="Times Roman,serif" font-size="14.00">55</text>
</g>
<!-- 46&#45;&#45;55 -->
<g id="edge64" class="edge"><title>46&#45;&#45;55</title>
<path fill="none" stroke="black" d="M417.723,-189.248C428.088,-195.221 440.565,-202.41 450.951,-208.395"/>
</g>
<!-- 56 -->
<g id="node54" class="node"><title>56</title>
<ellipse fill="none" stroke="black" cx="412.939" cy="-245.762" rx="27" ry="19.0919"/>
<text text-anchor="middle" x="412.939" y="-242.662" font-family="Times Roman,serif" font-size="14.00">56</text>
</g>
<!-- 46&#45;&#45;56 -->
<g id="edge66" class="edge"><title>46&#45;&#45;56</title>
<path fill="none" stroke="black" d="M401.159,-195.9C403.409,-205.422 406.138,-216.974 408.402,-226.559"/>
</g>
<!-- 47&#45;&#45;56 -->
<g id="edge70" class="edge"><title>47&#45;&#45;56</title>
<path fill="none" stroke="black" d="M377.012,-237.505C380.318,-238.265 383.703,-239.043 387.009,-239.803"/>
</g>
<!-- 57 -->
<g id="node58" class="node"><title>57</title>
<ellipse fill="none" stroke="black" cx="373.564" cy="-313.775" rx="27" ry="19.0919"/>
<text text-anchor="middle" x="373.564" y="-310.675" font-family="Times Roman,serif" font-size="14.00">57</text>
</g>
<!-- 47&#45;&#45;57 -->
<g id="edge72" class="edge"><title>47&#45;&#45;57</title>
<path fill="none" stroke="black" d="M356.37,-250.634C360.012,-264.01 364.858,-281.806 368.477,-295.095"/>
</g>
<!-- 50&#45;&#45;51 -->
<g id="edge78" class="edge"><title>50&#45;&#45;51</title>
<path fill="none" stroke="black" d="M83.462,-399.736C77.5182,-401.465 71.1777,-403.31 65.2341,-405.038"/>
</g>
<!-- 59 -->
<g id="node60" class="node"><title>59</title>
<ellipse fill="none" stroke="black" cx="174.728" cy="-445.914" rx="27" ry="19.0919"/>
<text text-anchor="middle" x="174.728" y="-442.814" font-family="Times Roman,serif" font-size="14.00">59</text>
</g>
<!-- 50&#45;&#45;59 -->
<g id="edge74" class="edge"><title>50&#45;&#45;59</title>
<path fill="none" stroke="black" d="M126.267,-406.774C135.765,-414.446 147.432,-423.868 156.938,-431.546"/>
</g>
<!-- 60 -->
<g id="node62" class="node"><title>60</title>
<ellipse fill="none" stroke="black" cx="96.7365" cy="-454.68" rx="27" ry="19.0919"/>
<text text-anchor="middle" x="96.7365" y="-451.58" font-family="Times Roman,serif" font-size="14.00">60</text>
</g>
<!-- 50&#45;&#45;60 -->
<g id="edge76" class="edge"><title>50&#45;&#45;60</title>
<path fill="none" stroke="black" d="M104.925,-411.456C103.462,-419.178 101.776,-428.077 100.316,-435.786"/>
</g>
<!-- 51&#45;&#45;60 -->
<g id="edge80" class="edge"><title>51&#45;&#45;60</title>
<path fill="none" stroke="black" d="M58.6942,-426.196C64.8803,-430.828 71.7765,-435.991 77.9803,-440.636"/>
</g>
<!-- 61 -->
<g id="node66" class="node"><title>61</title>
<ellipse fill="none" stroke="black" cx="49.5353" cy="-498.431" rx="27" ry="19.0919"/>
<text text-anchor="middle" x="49.5353" y="-495.331" font-family="Times Roman,serif" font-size="14.00">61</text>
</g>
<!-- 51&#45;&#45;61 -->
<g id="edge82" class="edge"><title>51&#45;&#45;61</title>
<path fill="none" stroke="black" d="M42.251,-431.437C43.8025,-445.706 45.9133,-465.12 47.4634,-479.376"/>
</g>
<!-- 55&#45;&#45;56 -->
<g id="edge84" class="edge"><title>55&#45;&#45;56</title>
<path fill="none" stroke="black" d="M448.713,-230.531C444.579,-232.291 440.277,-234.123 436.148,-235.88"/>
</g>
<!-- 63 -->
<g id="node69" class="node"><title>63</title>
<ellipse fill="none" stroke="black" cx="540.008" cy="-258.459" rx="27" ry="19.0919"/>
<text text-anchor="middle" x="540.008" y="-255.359" font-family="Times Roman,serif" font-size="14.00">63</text>
</g>
<!-- 55&#45;&#45;63 -->
<g id="edge86" class="edge"><title>55&#45;&#45;63</title>
<path fill="none" stroke="black" d="M493.581,-232.563C501.509,-236.985 510.49,-241.994 518.426,-246.421"/>
</g>
<!-- 64 -->
<g id="node71" class="node"><title>64</title>
<ellipse fill="none" stroke="black" cx="495.812" cy="-306.725" rx="27" ry="19.0919"/>
<text text-anchor="middle" x="495.812" y="-303.625" font-family="Times Roman,serif" font-size="14.00">64</text>
</g>
<!-- 55&#45;&#45;64 -->
<g id="edge88" class="edge"><title>55&#45;&#45;64</title>
<path fill="none" stroke="black" d="M477.239,-239.27C481.217,-253.72 486.699,-273.628 490.675,-288.069"/>
</g>
<!-- 56&#45;&#45;57 -->
<g id="edge90" class="edge"><title>56&#45;&#45;57</title>
<path fill="none" stroke="black" d="M402.593,-263.632C396.852,-273.55 389.729,-285.852 383.977,-295.788"/>
</g>
<!-- 66 -->
<g id="node74" class="node"><title>66</title>
<ellipse fill="none" stroke="black" cx="360.848" cy="-398.06" rx="27" ry="19.0919"/>
<text text-anchor="middle" x="360.848" y="-394.96" font-family="Times Roman,serif" font-size="14.00">66</text>
</g>
<!-- 57&#45;&#45;66 -->
<g id="edge92" class="edge"><title>57&#45;&#45;66</title>
<path fill="none" stroke="black" d="M370.678,-332.9C368.597,-346.694 365.8,-365.233 363.722,-379.01"/>
</g>
<!-- 65 -->
<g id="node76" class="node"><title>65</title>
<ellipse fill="none" stroke="black" cx="420.509" cy="-376.715" rx="27" ry="19.0919"/>
<text text-anchor="middle" x="420.509" y="-373.615" font-family="Times Roman,serif" font-size="14.00">65</text>
</g>
<!-- 57&#45;&#45;65 -->
<g id="edge94" class="edge"><title>57&#45;&#45;65</title>
<path fill="none" stroke="black" d="M386.144,-330.641C392.88,-339.672 401.153,-350.764 407.894,-359.801"/>
</g>
<!-- 59&#45;&#45;60 -->
<g id="edge100" class="edge"><title>59&#45;&#45;60</title>
<path fill="none" stroke="black" d="M147.888,-448.931C140.044,-449.812 131.472,-450.776 123.626,-451.658"/>
</g>
<!-- 67 -->
<g id="node78" class="node"><title>67</title>
<ellipse fill="none" stroke="black" cx="256.898" cy="-467.676" rx="27" ry="19.0919"/>
<text text-anchor="middle" x="256.898" y="-464.576" font-family="Times Roman,serif" font-size="14.00">67</text>
</g>
<!-- 59&#45;&#45;67 -->
<g id="edge96" class="edge"><title>59&#45;&#45;67</title>
<path fill="none" stroke="black" d="M200.277,-452.68C210.17,-455.301 221.473,-458.294 231.365,-460.914"/>
</g>
<!-- 68 -->
<g id="node80" class="node"><title>68</title>
<ellipse fill="none" stroke="black" cx="213.816" cy="-514.162" rx="27" ry="19.0919"/>
<text text-anchor="middle" x="213.816" y="-511.062" font-family="Times Roman,serif" font-size="14.00">68</text>
</g>
<!-- 59&#45;&#45;68 -->
<g id="edge98" class="edge"><title>59&#45;&#45;68</title>
<path fill="none" stroke="black" d="M184.998,-463.845C190.698,-473.797 197.768,-486.142 203.479,-496.113"/>
</g>
<!-- 60&#45;&#45;61 -->
<g id="edge102" class="edge"><title>60&#45;&#45;61</title>
<path fill="none" stroke="black" d="M80.2278,-469.982C75.6552,-474.221 70.691,-478.822 66.1144,-483.064"/>
</g>
<!-- 69 -->
<g id="node84" class="node"><title>69</title>
<ellipse fill="none" stroke="black" cx="119.085" cy="-554.792" rx="27" ry="19.0919"/>
<text text-anchor="middle" x="119.085" y="-551.692" font-family="Times Roman,serif" font-size="14.00">69</text>
</g>
<!-- 61&#45;&#45;69 -->
<g id="edge104" class="edge"><title>61&#45;&#45;69</title>
<path fill="none" stroke="black" d="M67.446,-512.946C77.7495,-521.295 90.6592,-531.757 100.993,-540.131"/>
</g>
<!-- 70 -->
<g id="node86" class="node"><title>70</title>
<ellipse fill="none" stroke="black" cx="56.7488" cy="-575.497" rx="27" ry="19.0919"/>
<text text-anchor="middle" x="56.7488" y="-572.397" font-family="Times Roman,serif" font-size="14.00">70</text>
</g>
<!-- 61&#45;&#45;70 -->
<g id="edge106" class="edge"><title>61&#45;&#45;70</title>
<path fill="none" stroke="black" d="M51.3184,-517.481C52.4282,-529.338 53.8506,-544.534 54.9612,-556.399"/>
</g>
<!-- 63&#45;&#45;64 -->
<g id="edge112" class="edge"><title>63&#45;&#45;64</title>
<path fill="none" stroke="black" d="M525.291,-274.531C520.571,-279.687 515.342,-285.397 510.615,-290.559"/>
</g>
<!-- 72 -->
<g id="node88" class="node"><title>72</title>
<ellipse fill="none" stroke="black" cx="598.519" cy="-301.182" rx="27" ry="19.0919"/>
<text text-anchor="middle" x="598.519" y="-298.082" font-family="Times Roman,serif" font-size="14.00">72</text>
</g>
<!-- 63&#45;&#45;72 -->
<g id="edge108" class="edge"><title>63&#45;&#45;72</title>
<path fill="none" stroke="black" d="M558.843,-272.212C565.525,-277.091 573.04,-282.578 579.719,-287.455"/>
</g>
<!-- 73 -->
<g id="node90" class="node"><title>73</title>
<ellipse fill="none" stroke="black" cx="545.187" cy="-349.858" rx="27" ry="19.0919"/>
<text text-anchor="middle" x="545.187" y="-346.758" font-family="Times Roman,serif" font-size="14.00">73</text>
</g>
<!-- 63&#45;&#45;73 -->
<g id="edge110" class="edge"><title>63&#45;&#45;73</title>
<path fill="none" stroke="black" d="M541.106,-277.843C541.991,-293.458 543.229,-315.292 544.108,-330.816"/>
</g>
<!-- 64&#45;&#45;73 -->
<g id="edge114" class="edge"><title>64&#45;&#45;73</title>
<path fill="none" stroke="black" d="M512.804,-321.569C517.714,-325.858 523.075,-330.541 527.996,-334.841"/>
</g>
<!-- 74 -->
<g id="node94" class="node"><title>74</title>
<ellipse fill="none" stroke="black" cx="482.18" cy="-395.117" rx="27" ry="19.0919"/>
<text text-anchor="middle" x="482.18" y="-392.017" font-family="Times Roman,serif" font-size="14.00">74</text>
</g>
<!-- 64&#45;&#45;74 -->
<g id="edge116" class="edge"><title>64&#45;&#45;74</title>
<path fill="none" stroke="black" d="M492.854,-325.905C490.568,-340.731 487.417,-361.158 485.132,-375.975"/>
</g>
<!-- 75 -->
<g id="node98" class="node"><title>75</title>
<ellipse fill="none" stroke="black" cx="412.509" cy="-446.86" rx="27" ry="19.0919"/>
<text text-anchor="middle" x="412.509" y="-443.76" font-family="Times Roman,serif" font-size="14.00">75</text>
</g>
<!-- 66&#45;&#45;75 -->
<g id="edge124" class="edge"><title>66&#45;&#45;75</title>
<path fill="none" stroke="black" d="M377.194,-413.501C383.224,-419.197 390.055,-425.65 396.092,-431.353"/>
</g>
<!-- 76 -->
<g id="node101" class="node"><title>76</title>
<ellipse fill="none" stroke="black" cx="333.725" cy="-470.427" rx="27" ry="19.0919"/>
<text text-anchor="middle" x="333.725" y="-467.327" font-family="Times Roman,serif" font-size="14.00">76</text>
</g>
<!-- 66&#45;&#45;76 -->
<g id="edge126" class="edge"><title>66&#45;&#45;76</title>
<path fill="none" stroke="black" d="M353.863,-416.696C349.845,-427.417 344.811,-440.85 340.781,-451.602"/>
</g>
<!-- 65&#45;&#45;66 -->
<g id="edge118" class="edge"><title>65&#45;&#45;66</title>
<path fill="none" stroke="black" d="M396.242,-385.396C392.629,-386.689 388.903,-388.022 385.286,-389.316"/>
</g>
<!-- 65&#45;&#45;74 -->
<g id="edge120" class="edge"><title>65&#45;&#45;74</title>
<path fill="none" stroke="black" d="M445.593,-384.2C449.461,-385.354 453.455,-386.546 457.318,-387.699"/>
</g>
<!-- 65&#45;&#45;75 -->
<g id="edge122" class="edge"><title>65&#45;&#45;75</title>
<path fill="none" stroke="black" d="M418.323,-395.882C417.194,-405.78 415.821,-417.822 414.692,-427.716"/>
</g>
<!-- 67&#45;&#45;68 -->
<g id="edge130" class="edge"><title>67&#45;&#45;68</title>
<path fill="none" stroke="black" d="M242.072,-483.674C237.788,-488.296 233.11,-493.343 228.816,-497.977"/>
</g>
<!-- 67&#45;&#45;76 -->
<g id="edge132" class="edge"><title>67&#45;&#45;76</title>
<path fill="none" stroke="black" d="M284.201,-468.654C291.447,-468.913 299.27,-469.193 306.511,-469.452"/>
</g>
<!-- 77 -->
<g id="node103" class="node"><title>77</title>
<ellipse fill="none" stroke="black" cx="281.161" cy="-534.186" rx="27" ry="19.0919"/>
<text text-anchor="middle" x="281.161" y="-531.086" font-family="Times Roman,serif" font-size="14.00">77</text>
</g>
<!-- 67&#45;&#45;77 -->
<g id="edge128" class="edge"><title>67&#45;&#45;77</title>
<path fill="none" stroke="black" d="M263.657,-486.203C267.022,-495.428 271.078,-506.547 274.439,-515.759"/>
</g>
<!-- 68&#45;&#45;77 -->
<g id="edge134" class="edge"><title>68&#45;&#45;77</title>
<path fill="none" stroke="black" d="M238.893,-521.618C244.577,-523.308 250.611,-525.102 256.287,-526.79"/>
</g>
<!-- 78 -->
<g id="node108" class="node"><title>78</title>
<ellipse fill="none" stroke="black" cx="205.439" cy="-577.686" rx="27" ry="19.0919"/>
<text text-anchor="middle" x="205.439" y="-574.586" font-family="Times Roman,serif" font-size="14.00">78</text>
</g>
<!-- 68&#45;&#45;78 -->
<g id="edge136" class="edge"><title>68&#45;&#45;78</title>
<path fill="none" stroke="black" d="M211.302,-533.221C210.242,-541.261 209.01,-550.601 207.95,-558.64"/>
</g>
<!-- 69&#45;&#45;70 -->
<g id="edge142" class="edge"><title>69&#45;&#45;70</title>
<path fill="none" stroke="black" d="M94.4479,-562.975C90.0919,-564.422 85.5577,-565.928 81.2067,-567.373"/>
</g>
<!-- 69&#45;&#45;78 -->
<g id="edge138" class="edge"><title>69&#45;&#45;78</title>
<path fill="none" stroke="black" d="M144.527,-561.537C155.671,-564.492 168.723,-567.952 179.88,-570.91"/>
</g>
<!-- 79 -->
<g id="node111" class="node"><title>79</title>
<ellipse fill="none" stroke="black" cx="138.247" cy="-617.212" rx="27" ry="19.0919"/>
<text text-anchor="middle" x="138.247" y="-614.112" font-family="Times Roman,serif" font-size="14.00">79</text>
</g>
<!-- 69&#45;&#45;79 -->
<g id="edge140" class="edge"><title>69&#45;&#45;79</title>
<path fill="none" stroke="black" d="M124.834,-573.52C127.259,-581.421 130.077,-590.598 132.502,-598.497"/>
</g>
<!-- 70&#45;&#45;79 -->
<g id="edge144" class="edge"><title>70&#45;&#45;79</title>
<path fill="none" stroke="black" d="M78.5888,-586.676C90.282,-592.661 104.644,-600.013 116.347,-606.002"/>
</g>
<!-- 80 -->
<g id="node115" class="node"><title>80</title>
<ellipse fill="none" stroke="black" cx="71.532" cy="-645.967" rx="27" ry="19.0919"/>
<text text-anchor="middle" x="71.532" y="-642.867" font-family="Times Roman,serif" font-size="14.00">80</text>
</g>
<!-- 70&#45;&#45;80 -->
<g id="edge146" class="edge"><title>70&#45;&#45;80</title>
<path fill="none" stroke="black" d="M60.7104,-594.382C62.8315,-604.493 65.4367,-616.911 67.5594,-627.03"/>
</g>
<!-- 72&#45;&#45;73 -->
<g id="edge148" class="edge"><title>72&#45;&#45;73</title>
<path fill="none" stroke="black" d="M581.937,-316.317C575.577,-322.121 568.319,-328.746 561.943,-334.565"/>
</g>
<!-- 73&#45;&#45;74 -->
<g id="edge150" class="edge"><title>73&#45;&#45;74</title>
<path fill="none" stroke="black" d="M526.283,-363.438C518.454,-369.062 509.381,-375.579 501.507,-381.234"/>
</g>
<!-- 74&#45;&#45;75 -->
<g id="edge152" class="edge"><title>74&#45;&#45;75</title>
<path fill="none" stroke="black" d="M463.51,-408.984C453.513,-416.408 441.235,-425.526 431.231,-432.956"/>
</g>
<!-- 75&#45;&#45;76 -->
<g id="edge154" class="edge"><title>75&#45;&#45;76</title>
<path fill="none" stroke="black" d="M387.581,-454.317C378.385,-457.068 367.967,-460.184 358.761,-462.938"/>
</g>
<!-- 76&#45;&#45;77 -->
<g id="edge156" class="edge"><title>76&#45;&#45;77</title>
<path fill="none" stroke="black" d="M319.915,-487.179C312.249,-496.476 302.741,-508.009 295.062,-517.324"/>
</g>
<!-- 77&#45;&#45;78 -->
<g id="edge158" class="edge"><title>77&#45;&#45;78</title>
<path fill="none" stroke="black" d="M260.068,-546.303C249.565,-552.336 236.905,-559.609 226.418,-565.634"/>
</g>
<!-- 78&#45;&#45;79 -->
<g id="edge160" class="edge"><title>78&#45;&#45;79</title>
<path fill="none" stroke="black" d="M184.547,-589.975C176.534,-594.689 167.39,-600.068 159.357,-604.794"/>
</g>
<!-- 79&#45;&#45;80 -->
<g id="edge162" class="edge"><title>79&#45;&#45;80</title>
<path fill="none" stroke="black" d="M114.913,-627.269C108.45,-630.055 101.434,-633.079 94.9653,-635.867"/>
</g>
</g>
</svg>
